Coordinates
version=1
nRows=8
nColumns=27
inDegrees=yes

Units are S.I. units (second, meters, Newtons, ...)
If the header above contains a line with 'inDegrees', this indicates whether rotational values are in degrees (yes) or radians (no).

endheader
time	pelvis_rotation	pelvis_tilt	pelvis_list	pelvis_tx	pelvis_ty	pelvis_tz	hip_flexion_r	hip_adduction_r	hip_rotation_r	knee_angle_r	knee_rotation_r	knee_adduction_r	knee_angle_r_beta	ankle_angle_r	subtalar_angle_r	mtp_angle_r	hip_flexion_l	hip_adduction_l	hip_rotation_l	knee_angle_l	knee_rotation_l	knee_adduction_l	knee_angle_l_beta	ankle_angle_l	subtalar_angle_l	mtp_angle_l
      4.78500000	      4.51234843	    -23.25343151	      2.20126000	     -0.00006681	      0.44338456	     -1.14131823	    119.01700637	    -44.68855556	     27.25117429	    109.63944134	      0.00000000	      9.94398456	      1.91356924	     19.77940234	      0.00000000	      0.00000000	    117.03096600	    -35.84515432	     22.88592357	    103.89325734	      0.00000000	     -9.95728136	      1.81327941	     13.12609650	      0.00000000	      0.00000000
      4.79000000	      4.52428397	    -23.17416728	      2.14797755	      0.00016502	      0.44207735	     -1.14137688	    119.08324779	    -44.68656613	     27.38846108	    109.79800185	      0.00000000	      9.94405585	      1.91633664	     19.83507550	      0.00000000	      0.00000000	    117.19548235	    -35.77537319	     23.10409023	    104.07658191	      0.00000000	     -9.95738172	      1.81647903	     13.17241390	      0.00000000	      0.00000000
      4.79500000	      4.52247804	    -23.10436958	      2.08718062	      0.00038158	      0.44081494	     -1.14143778	    119.13878701	    -44.67533671	     27.49977931	    109.95057315	      0.00000000	      9.94406198	      1.91899952	     19.88872467	      0.00000000	      0.00000000	    117.36956369	    -35.71905337	     23.33062390	    104.25548947	      0.00000000	     -9.95745511	      1.81960155	     13.21000713	      0.00000000	      0.00000000
      4.80000000	      4.26534883	    -23.13799553	      1.99883716	      0.00049482	      0.43967041	     -1.14141793	    119.16851720	    -44.32922391	     27.50091739	    110.09184390	      0.00000000	      9.94399522	      1.92146516	     20.02694727	      0.00000000	      0.00000000	    117.68149484	    -35.97297981	     23.60350697	    104.41999822	      0.00000000	     -9.95761601	      1.82247277	     13.23823705	      0.00000000	      0.00000000
      4.80500000	      4.56303905	    -22.99199207	      2.18757642	      0.00074972	      0.43845376	     -1.14153525	    119.51610457	    -44.57404286	     28.03055495	    110.26280243	      0.00000000	      9.94418973	      1.92444894	     19.94195639	      0.00000000	      0.00000000	    117.52207061	    -35.69860974	     23.46531228	    104.55021673	      0.00000000	     -9.95762945	      1.82474552	     13.32852764	      0.00000000	      0.00000000
      4.81000000	      4.57239074	    -22.93465798	      1.97255077	      0.00091818	      0.43725834	     -1.14165359	    119.41350063	    -44.68680452	     27.91098621	    110.37966053	      0.00000000	      9.94423166	      1.92648850	     20.04233416	      0.00000000	      0.00000000	    117.86491406	    -35.54784773	     23.87746224	    104.75751048	      0.00000000	     -9.95775710	      1.82836347	     13.30180854	      0.00000000	      0.00000000
      4.81500000	      4.56372589	    -22.87018094	      2.18227479	      0.00104496	      0.43620354	     -1.14164400	    119.75271829	    -44.51369456	     28.37849960	    110.54487147	      0.00000000	      9.94430573	      1.92937198	     20.07823110	      0.00000000	      0.00000000	    117.76991846	    -35.67877404	     23.71997435	    104.84612344	      0.00000000	     -9.95781585	      1.82991006	     13.40991106	      0.00000000	      0.00000000
      4.82000000	      4.57799785	    -22.87858167	      1.92250120	      0.00112620	      0.43518371	     -1.14172600	    119.64160314	    -44.64805784	     28.16927417	    110.62959200	      0.00000000	      9.94436539	      1.93085063	     20.09316372	      0.00000000	      0.00000000	    118.18310929	    -35.50120693	     24.16849631	    105.02134763	      0.00000000	     -9.95790495	      1.83296830	     13.34712294	      0.00000000	      0.00000000
